<svg width="427" height="99" viewBox="0 0 427 99" fill="none" xmlns="http://www.w3.org/2000/svg">
<g clip-path="url(#clip0_6_129)">
<path d="M153.836 88.1368C153.836 92.9166 154.996 96.0307 157.388 97.624H140.062C142.454 96.0307 143.614 92.9166 143.614 88.1368V15.2809L132.16 65.3241V65.4689L127.447 86.3987L127.302 86.109V85.6745L111.208 17.1639V88.1368C111.208 92.9166 112.368 96.0307 114.761 97.624H102.944C105.336 96.0307 106.496 92.9166 106.496 88.1368V10.8632C106.496 6.0834 105.336 2.96928 102.944 1.37601H118.168L129.985 55.4023L142.237 1.37601H157.388C154.996 2.96928 153.836 6.0834 153.836 10.8632V88.1368V88.1368Z" fill="#1C180F"/>
<path d="M166.523 84.6606C163.188 75.101 161.593 63.1514 161.593 48.9568C161.593 33.5311 163.188 21.5091 166.378 12.891C169.568 4.34528 174.497 0 181.094 0C187.764 0 192.694 4.27286 195.811 12.8186C198.928 21.3643 200.523 33.3862 200.523 48.9568C200.523 63.3687 198.928 75.3182 195.739 84.8054C192.549 94.2926 187.619 99.0724 181.022 99.0724C174.642 99 169.858 94.2202 166.523 84.6606ZM187.402 82.7776C188.271 73.9422 188.706 62.7169 188.706 48.9568C188.706 35.4865 188.271 24.4784 187.402 15.8603C186.532 7.31456 184.429 2.96928 181.167 2.96928C177.832 2.96928 175.73 7.31456 174.86 15.9327C173.917 24.6233 173.482 35.5589 173.482 48.8844C173.482 62.4272 173.917 73.6525 174.86 82.5604C175.802 91.4682 177.832 95.8859 181.022 95.8859C184.357 95.9583 186.532 91.613 187.402 82.7776Z" fill="#1C180F"/>
<path d="M208.208 88.1368V10.8632C208.208 6.0834 207.048 2.96928 204.655 1.37601H221.982C219.589 2.96928 218.429 6.0834 218.429 10.8632V88.1368C218.429 92.9166 219.589 96.0307 221.982 97.624H204.655C207.048 96.1032 208.208 92.9166 208.208 88.1368Z" fill="#1C180F"/>
<path d="M267.582 88.861C268.597 92.989 270.699 95.9583 273.889 97.6964H252.793C253.808 97.0446 254.678 96.1031 255.475 94.9444C256.272 93.7857 256.635 92.3372 256.635 90.6715C256.635 89.5852 256.562 88.7162 256.345 88.2092L246.413 44.7564L233.581 88.2092C233.291 89.1507 233.146 89.9473 233.146 90.6715C233.146 92.2648 233.509 93.6408 234.306 94.7996C235.104 95.9583 236.046 96.9722 237.134 97.6964H223.214C224.664 97.0446 225.752 96.1031 226.404 94.7271C227.057 93.4236 227.782 91.2509 228.579 88.2092L243.876 36.9349L226.694 1.44843H241.991C240.831 2.3899 240.178 3.62107 240.178 5.14191C240.178 6.80761 240.758 8.69056 241.846 10.9356L249.675 27.0132L261.13 7.24213C261.492 6.59034 261.71 5.93855 261.71 5.28676C261.71 4.12802 261.057 2.82443 259.752 1.59327H269.974L253.445 30.6342L267.582 88.861Z" fill="#1C180F"/>
<path d="M301.727 1.37601L317.531 97.624H301.147C303.612 95.8859 304.845 93.4236 304.845 90.1646C304.845 89.2231 304.772 88.5713 304.7 88.1368L303.032 76.9839H283.096L281.283 88.1368C281.211 88.5713 281.138 89.2955 281.138 90.1646C281.138 93.3511 282.371 95.8135 284.836 97.624H275.194L291.36 1.37601H301.727ZM293.318 14.1946L283.821 72.9283H302.38L293.318 14.1946Z" fill="#1C180F"/>
<path d="M337.105 56.6335H427" stroke="black" stroke-width="2" stroke-miterlimit="10"/>
<path d="M0 56.6335H89.8947" stroke="black" stroke-width="2" stroke-miterlimit="10"/>
</g>
<defs>
<clipPath id="clip0_6_129">
<rect width="427" height="99" fill="white"/>
</clipPath>
</defs>
</svg>
