<svg width="202" height="102" viewBox="0 0 202 102" fill="none" xmlns="http://www.w3.org/2000/svg">
<path d="M39.7583 33.7715V38.1064H47.3502V41.1525H39.7583V47.1277H35.9623V30.7254H48.3577V33.7715H39.7583ZM63.6276 44.0815V47.1277H50.9276V30.7254H63.323V33.7715H54.7001V37.3331H62.3154V40.2856H54.7001V44.0815H63.6276ZM70.0456 33.8184H64.7968V30.7254H79.0902V33.8184H73.8415V47.1277H70.0456V33.8184ZM91.111 43.6129H83.4956L82.0428 47.1277H78.1532L85.4639 30.7254H89.213L96.5471 47.1277H92.5637L91.111 43.6129ZM89.9159 40.7308L87.315 34.451L84.7141 40.7308H89.9159ZM115.687 43.6129H108.072L106.619 47.1277H102.729L110.04 30.7254H113.789L121.123 47.1277H117.14L115.687 43.6129ZM114.492 40.7308L111.891 34.451L109.29 40.7308H114.492ZM137.751 47.1277L137.728 37.2863L132.901 45.3937H131.19L126.386 37.4972V47.1277H122.825V30.7254H125.965L132.104 40.9182L138.149 30.7254H141.266L141.313 47.1277H137.751ZM157.248 38.5985C158.185 38.8953 158.92 39.3951 159.451 40.0981C159.982 40.7854 160.247 41.6368 160.247 42.6522C160.247 44.0893 159.685 45.1984 158.56 45.9795C157.451 46.7449 155.827 47.1277 153.686 47.1277H145.204V30.7254H153.218C155.217 30.7254 156.748 31.1081 157.81 31.8735C158.888 32.639 159.427 33.6778 159.427 34.99C159.427 35.7866 159.232 36.4974 158.841 37.1223C158.467 37.7471 157.935 38.2392 157.248 38.5985ZM148.977 33.5841V37.4503H152.749C153.686 37.4503 154.397 37.2863 154.881 36.9582C155.366 36.6302 155.608 36.1459 155.608 35.5055C155.608 34.865 155.366 34.3885 154.881 34.0761C154.397 33.7481 153.686 33.5841 152.749 33.5841H148.977ZM153.405 44.269C154.405 44.269 155.155 44.1049 155.655 43.7769C156.17 43.4489 156.428 42.9412 156.428 42.2538C156.428 40.8948 155.42 40.2153 153.405 40.2153H148.977V44.269H153.405ZM38.8455 54.7254H46.2968C48.0777 54.7254 49.6476 55.069 51.0066 55.7564C52.3813 56.4281 53.4436 57.381 54.1934 58.6151C54.9588 59.8491 55.3415 61.2863 55.3415 62.9265C55.3415 64.5667 54.9588 66.0039 54.1934 67.238C53.4436 68.472 52.3813 69.4328 51.0066 70.1201C49.6476 70.7918 48.0777 71.1277 46.2968 71.1277H38.8455V54.7254ZM46.1094 68.0112C47.7496 68.0112 49.054 67.5582 50.0225 66.6522C51.0066 65.7305 51.4987 64.4886 51.4987 62.9265C51.4987 61.3644 51.0066 60.1303 50.0225 59.2243C49.054 58.3026 47.7496 57.8418 46.1094 57.8418H42.6415V68.0112H46.1094ZM66.1476 71.4088C64.4449 71.4088 62.9062 71.0417 61.5316 70.3075C60.1725 69.5733 59.1025 68.5658 58.3214 67.2848C57.556 65.9883 57.1732 64.5355 57.1732 62.9265C57.1732 61.3175 57.556 59.8726 58.3214 58.5916C59.1025 57.2951 60.1725 56.2797 61.5316 55.5455C62.9062 54.8113 64.4449 54.4442 66.1476 54.4442C67.8504 54.4442 69.3812 54.8113 70.7403 55.5455C72.0993 56.2797 73.1694 57.2951 73.9504 58.5916C74.7315 59.8726 75.122 61.3175 75.122 62.9265C75.122 64.5355 74.7315 65.9883 73.9504 67.2848C73.1694 68.5658 72.0993 69.5733 70.7403 70.3075C69.3812 71.0417 67.8504 71.4088 66.1476 71.4088ZM66.1476 68.1752C67.1162 68.1752 67.9909 67.9565 68.772 67.5192C69.5531 67.0661 70.1623 66.4413 70.5997 65.6446C71.0527 64.8479 71.2792 63.9419 71.2792 62.9265C71.2792 61.9111 71.0527 61.0051 70.5997 60.2084C70.1623 59.4117 69.5531 58.7947 68.772 58.3573C67.9909 57.9043 67.1162 57.6778 66.1476 57.6778C65.1791 57.6778 64.3043 57.9043 63.5233 58.3573C62.7422 58.7947 62.1252 59.4117 61.6722 60.2084C61.2348 61.0051 61.0161 61.9111 61.0161 62.9265C61.0161 63.9419 61.2348 64.8479 61.6722 65.6446C62.1252 66.4413 62.7422 67.0661 63.5233 67.5192C64.3043 67.9565 65.1791 68.1752 66.1476 68.1752ZM77.9749 54.7254H81.7708V68.0347H89.9954V71.1277H77.9749V54.7254ZM104.816 68.0815V71.1277H92.1163V54.7254H104.512V57.7715H95.8889V61.3331H103.504V64.2856H95.8889V68.0815H104.816ZM122.88 54.7254V71.1277H119.764L111.586 61.1691V71.1277H107.837V54.7254H110.977L119.131 64.6839V54.7254H122.88ZM130.158 57.8184H124.91V54.7254H139.203V57.8184H133.954V71.1277H130.158V57.8184ZM141.245 54.7254H145.041V71.1277H141.245V54.7254ZM159.736 67.6129H152.121L150.668 71.1277H146.778L154.089 54.7254H157.838L165.172 71.1277H161.189L159.736 67.6129ZM158.541 64.7308L155.94 58.451L153.339 64.7308H158.541Z" fill="#FFC71D"/>
<path d="M200.745 51C200.745 64.4569 189.925 76.9253 171.783 86.094C153.702 95.2316 128.648 100.915 100.915 100.915C73.1816 100.915 48.1275 95.2316 30.0467 86.094C11.9043 76.9253 1.08511 64.4569 1.08511 51C1.08511 37.5431 11.9043 25.0747 30.0467 15.906C48.1275 6.76843 73.1816 1.08511 100.915 1.08511C128.648 1.08511 153.702 6.76843 171.783 15.906C189.925 25.0747 200.745 37.5431 200.745 51Z" stroke="#FFC71D" stroke-width="2.17021"/>
</svg>
