<svg width="953" height="396" viewBox="0 0 953 396" fill="none" xmlns="http://www.w3.org/2000/svg">
<g clip-path="url(#clip0_6_72)">
<path d="M9.1937 249.034C6.31205 245.401 4.80262 239.985 4.80262 232.788V164.035C4.80262 159.168 3.56763 155.877 1.09766 154.301H18.9364C16.4664 155.877 15.2314 159.168 15.2314 164.035V229.977C15.2314 237.518 15.7803 242.796 16.9467 245.812C18.0445 248.828 20.24 250.336 23.4647 250.336C26.4835 250.336 28.6791 248.76 30.0513 245.538C31.4235 242.316 32.1096 237.175 32.1096 229.977V164.035C32.1096 159.168 30.8746 155.877 28.4046 154.301H40.5487C38.0787 155.877 36.8437 159.168 36.8437 164.035V229.977C36.8437 238.546 35.6774 244.784 33.276 248.691C30.9432 252.598 27.101 254.586 21.818 254.586C16.3978 254.586 12.1439 252.735 9.1937 249.034Z" stroke="#1D1910" stroke-miterlimit="10"/>
<path d="M84.3907 164.035V253.147H76.775L53.3102 168.422V243.413C53.3102 248.28 54.5452 251.57 57.0152 253.147H44.8025C47.2725 251.57 48.5075 248.28 48.5075 243.413V164.035C48.5075 159.168 47.2725 155.877 44.8025 154.301H60.3771L79.588 223.191V164.035C79.588 159.168 78.353 155.877 75.883 154.301H88.0271C85.6257 155.877 84.3907 159.099 84.3907 164.035Z" stroke="#1D1910" stroke-miterlimit="10"/>
<path d="M118.079 154.301L134.339 253.147H117.53C120.068 251.364 121.372 248.828 121.372 245.538C121.372 244.578 121.303 243.893 121.235 243.413L119.52 231.965H99.005L97.1525 243.413C97.0839 243.893 97.0153 244.578 97.0153 245.538C97.0153 248.828 98.3189 251.364 100.857 253.147H90.9775L107.513 154.301H118.079V154.301ZM109.434 167.393L99.6911 227.715H118.765L109.434 167.393Z" stroke="#1D1910" stroke-miterlimit="10"/>
<path d="M163.636 246.84C160.068 241.699 157.461 235.05 155.677 226.824C153.893 218.667 153.001 209.962 153.001 200.845C153.001 192.482 153.756 184.599 155.265 177.264C156.775 169.93 159.039 164.035 162.058 159.51C165.077 155.055 168.713 152.793 172.967 152.793C179.073 152.793 183.258 157.385 185.523 166.639L184.219 154.095H187.581V190.563H186.483C185.523 185.284 184.082 180.143 182.092 175.139C180.102 170.135 177.975 166.091 175.574 163.075C173.241 159.99 171.114 158.482 169.331 158.482C167.135 158.482 165.557 160.676 164.459 165.131C163.361 169.587 162.813 175.414 162.813 182.817C162.813 192.071 163.567 201.873 165.145 212.361C166.723 222.78 168.85 231.623 171.595 238.683C174.339 245.812 177.289 249.376 180.514 249.376C184.013 249.376 185.728 246.155 185.728 239.643C185.728 235.598 185.042 230.457 183.602 224.219H186.826C188.13 230.32 188.816 235.187 188.816 238.752C188.816 249.308 184.699 254.586 176.397 254.586C171.457 254.586 167.204 251.981 163.636 246.84Z" fill="#1D1910"/>
<path d="M231.423 183.228H229.708C229.708 177.744 229.228 173.289 228.198 169.724C227.238 166.16 225.317 163.418 222.504 161.43C219.691 159.442 215.643 158.482 210.497 158.482H207.272V181.651H209.536C211.046 181.651 212.349 181.034 213.447 179.869C214.545 178.704 215.094 177.196 215.094 175.276C215.094 173.563 214.614 171.781 213.653 169.93L215.231 169.107L231.492 204.409L230.051 205.095C227.512 200.091 224.425 195.635 220.857 191.728C217.289 187.821 213.584 185.833 209.674 185.833H207.272V248.828H210.497C215.711 248.828 219.691 247.868 222.504 245.881C225.317 243.893 227.238 241.151 228.198 237.586C229.159 234.022 229.708 229.566 229.708 224.082H231.423V253.01H193.138C195.608 251.433 196.843 248.143 196.843 243.276V164.035C196.843 159.168 195.608 155.877 193.138 154.301H231.423V183.228V183.228Z" fill="#1D1910"/>
<path d="M261.543 195.361L268.473 196.458C271.08 203.587 273.275 212.018 275.059 221.615C276.775 231.211 278.558 243.139 280.342 257.328H278.215C274.854 244.304 271.08 232.582 266.963 222.026C262.847 211.47 257.632 201.05 251.183 190.7V243.413C251.183 248.28 252.418 251.57 254.888 253.147H237.049C239.519 251.57 240.754 248.28 240.754 243.413V164.035C240.754 159.168 239.519 155.877 237.049 154.301H255.162C259.416 154.301 263.533 155.055 267.581 156.631C271.629 158.208 274.991 160.607 277.667 163.898C280.342 167.188 281.715 171.232 281.715 176.03C281.715 179.526 280.754 182.68 278.833 185.422C276.912 188.232 274.373 190.357 271.286 191.934C268.198 193.51 264.905 194.196 261.543 194.127V195.361ZM266.209 163.692C263.601 160.265 258.593 158.551 251.251 158.551V187.204C253.447 189.397 256.054 190.425 259.142 190.425C262.161 190.425 264.768 189.26 266.895 186.998C269.09 184.667 270.119 181.309 270.119 176.784C270.188 171.438 268.816 167.119 266.209 163.692Z" fill="#1D1910"/>
<path d="M325.488 157.591C324.665 159.168 323.979 161.293 323.43 164.035L304.905 263.155H303.945L285.42 163.418V163.281C284.939 160.95 284.322 159.031 283.567 157.591C282.812 156.152 281.715 155.055 280.343 154.301H299.965C297.427 156.083 296.123 158.619 296.123 161.91C296.123 162.869 296.192 163.555 296.26 164.035L306.277 220.929L306.963 230.663L307.924 220.792L318.216 164.035C318.421 162.938 318.49 162.184 318.49 161.773C318.49 159.99 318.078 158.482 317.255 157.18C316.432 155.877 315.54 154.918 314.511 154.301H328.782C327.478 154.918 326.312 156.015 325.488 157.591Z" fill="#1D1910"/>
<path d="M368.713 183.228H366.998C366.998 177.744 366.517 173.289 365.488 169.724C364.528 166.16 362.607 163.418 359.794 161.43C356.981 159.442 352.932 158.482 347.787 158.482H344.562V181.651H346.826C348.336 181.651 349.639 181.034 350.737 179.869C351.835 178.704 352.384 177.196 352.384 175.276C352.384 173.563 351.903 171.781 350.943 169.93L352.521 169.107L368.781 204.409L367.341 205.095C364.802 200.091 361.715 195.635 358.147 191.728C354.579 187.821 350.874 185.833 346.963 185.833H344.562V248.828H347.787C353.001 248.828 356.981 247.868 359.794 245.881C362.607 243.893 364.528 241.151 365.488 237.586C366.449 234.022 366.998 229.566 366.998 224.082H368.713V253.01H330.428C332.898 251.433 334.133 248.143 334.133 243.276V164.035C334.133 159.168 332.898 155.877 330.428 154.301H368.713V183.228Z" fill="#1D1910"/>
<path d="M405.076 209.276C407.135 212.909 408.85 216.885 410.359 221.203C411.869 225.522 412.623 229.772 412.623 233.885C412.623 239.848 411.114 244.784 408.164 248.828C405.214 252.872 401.234 254.929 396.363 254.929C390.737 254.929 385.316 250.062 380.102 240.397L379.279 254.518H377.701L372.898 217.091L374.202 216.542C377.769 225.659 381.749 233.679 386.003 240.465C390.256 247.32 393.824 250.679 396.706 250.679C400.96 250.679 403.087 247.731 403.087 241.905C403.087 237.038 401.783 231.691 399.107 225.865C396.5 220.107 392.795 213.183 388.061 205.163C383.19 196.8 379.553 190.083 377.152 184.942C374.819 179.869 373.584 174.797 373.584 169.861C373.584 164.789 374.956 160.676 377.769 157.523C380.582 154.369 384.219 152.793 388.884 152.793C396.294 152.793 401.371 156.906 403.979 165.063L406.38 154.164H407.684V190.151H406.38C405.419 180.349 403.567 172.397 400.891 166.228C398.147 160.059 394.991 156.974 391.423 156.974C389.159 156.974 387.443 157.797 386.208 159.373C384.973 160.95 384.356 163.349 384.356 166.434C384.356 170.135 385.454 174.317 387.649 178.978C389.845 183.708 392.932 189.123 396.774 195.361C400.342 201.05 403.087 205.643 405.076 209.276Z" fill="#1D1910"/>
<path d="M442.606 154.301L458.867 253.147H442.057C444.596 251.364 445.9 248.828 445.9 245.538C445.9 244.578 445.831 243.893 445.762 243.413L444.047 231.965H423.533L421.68 243.413C421.611 243.893 421.543 244.578 421.543 245.538C421.543 248.828 422.846 251.364 425.385 253.147H415.505L432.04 154.301H442.606V154.301ZM434.03 167.393L424.287 227.715H443.361L434.03 167.393Z" fill="#1D1910"/>
<path d="M532.486 243.413C532.486 248.28 533.721 251.57 536.191 253.147H518.352C520.822 251.57 522.057 248.28 522.057 243.413V168.559L510.325 219.97V220.107L505.522 241.562L505.385 241.288V240.877L488.85 170.547V243.413C488.85 248.28 490.085 251.57 492.555 253.147H480.273C482.743 251.57 483.978 248.28 483.978 243.413V164.035C483.978 159.168 482.743 155.877 480.273 154.301H495.848L507.992 209.824L520.548 154.301H536.122C533.652 155.877 532.417 159.168 532.417 164.035V243.413H532.486Z" stroke="#1D1910" stroke-miterlimit="10"/>
<path d="M566.105 154.301L582.366 253.147H565.556C568.095 251.364 569.398 248.828 569.398 245.538C569.398 244.578 569.33 243.893 569.261 243.413L567.546 231.965H547.031L545.179 243.413C545.11 243.893 545.042 244.578 545.042 245.538C545.042 248.828 546.345 251.364 548.884 253.147H539.004L555.539 154.301H566.105V154.301ZM557.46 167.393L547.717 227.715H566.791L557.46 167.393Z" stroke="#1D1910" stroke-miterlimit="10"/>
<path d="M620.239 224.219V253.147H585.179C587.649 251.57 588.884 248.28 588.884 243.413V164.035C588.884 159.168 587.649 155.877 585.179 154.301H603.018C600.548 155.877 599.313 159.168 599.313 164.035V248.897C604.527 248.897 608.507 247.937 611.32 245.949C614.133 243.961 616.054 241.219 617.014 237.655C617.975 234.09 618.524 229.635 618.524 224.151H620.239V224.219Z" stroke="#1D1910" stroke-miterlimit="10"/>
<path d="M658.112 224.219V253.147H623.052C625.522 251.57 626.757 248.28 626.757 243.413V164.035C626.757 159.168 625.522 155.877 623.052 154.301H640.891C638.421 155.877 637.186 159.168 637.186 164.035V248.897C642.4 248.897 646.38 247.937 649.193 245.949C652.006 243.961 653.927 241.219 654.887 237.655C655.848 234.09 656.397 229.635 656.397 224.151H658.112V224.219Z" stroke="#1D1910" stroke-miterlimit="10"/>
<path d="M664.63 239.78C661.268 229.909 659.553 217.707 659.553 203.107C659.553 187.272 661.199 174.934 664.493 166.091C667.786 157.248 672.863 152.793 679.587 152.793C686.448 152.793 691.525 157.18 694.681 165.954C697.906 174.728 699.484 187.067 699.484 203.107C699.484 217.913 697.837 230.183 694.544 239.917C691.251 249.651 686.174 254.518 679.45 254.518C672.932 254.586 667.992 249.651 664.63 239.78ZM686.036 237.86C686.928 228.812 687.409 217.228 687.409 203.107C687.409 189.26 686.928 177.95 686.036 169.107C685.144 160.333 683.018 155.877 679.587 155.877C676.156 155.877 674.03 160.333 673.069 169.244C672.108 178.155 671.628 189.397 671.628 203.038C671.628 216.953 672.108 228.538 673.069 237.655C674.03 246.772 676.156 251.364 679.45 251.364C682.949 251.433 685.144 246.909 686.036 237.86Z" stroke="#1D1910" stroke-miterlimit="10"/>
<path d="M728.232 195.361L735.161 196.458C737.769 203.587 739.964 212.018 741.748 221.615C743.463 231.211 745.247 243.139 747.031 257.328H744.904C741.542 244.304 737.769 232.582 733.652 222.026C729.535 211.47 724.321 201.05 717.872 190.7V243.413C717.872 248.28 719.107 251.57 721.577 253.147H703.738C706.208 251.57 707.443 248.28 707.443 243.413V164.035C707.443 159.168 706.208 155.877 703.738 154.301H721.851C726.105 154.301 730.221 155.055 734.269 156.631C738.317 158.208 741.679 160.607 744.355 163.898C747.031 167.188 748.403 171.232 748.403 176.03C748.403 179.526 747.443 182.68 745.522 185.422C743.6 188.232 741.062 190.357 737.974 191.934C734.887 193.51 731.594 194.196 728.232 194.127V195.361ZM732.897 163.692C730.29 160.265 725.282 158.551 717.94 158.551V187.204C720.136 189.397 722.743 190.425 725.83 190.425C728.849 190.425 731.456 189.26 733.583 186.998C735.779 184.667 736.808 181.309 736.808 176.784C736.877 171.438 735.573 167.119 732.897 163.692Z" stroke="#1D1910" stroke-miterlimit="10"/>
<path d="M793.137 264.046C782.228 263.086 773.652 260.001 767.546 254.792C761.439 249.582 757.185 242.659 754.853 234.09C752.52 225.522 751.285 215.24 751.285 203.175C751.285 187.341 752.932 175.002 756.225 166.16C759.518 157.317 764.595 152.861 771.319 152.861C778.18 152.861 783.257 157.248 786.414 166.022C789.638 174.797 791.216 187.135 791.216 203.175C791.216 217.845 789.57 230.046 786.276 239.848C782.983 249.582 777.974 254.518 771.319 254.586C774.407 255.614 777.769 256.3 781.336 256.643C784.904 256.985 788.815 257.122 793.069 257.122V264.046H793.137ZM777.769 237.86C778.661 228.812 779.141 217.228 779.141 203.107C779.141 189.26 778.661 177.95 777.769 169.107C776.877 160.333 774.75 155.877 771.319 155.877C767.889 155.877 765.762 160.333 764.801 169.244C763.841 178.155 763.36 189.397 763.36 203.038C763.36 216.953 763.841 228.538 764.801 237.655C765.762 246.772 767.889 251.364 771.182 251.364C774.681 251.433 776.877 246.909 777.769 237.86Z" stroke="#1D1910" stroke-miterlimit="10"/>
<path d="M803.978 249.034C801.028 245.332 799.587 239.917 799.587 232.788V164.035C799.587 159.168 798.352 155.877 795.882 154.301H813.721C811.251 155.877 810.016 159.168 810.016 164.035V229.977C810.016 237.518 810.564 242.796 811.731 245.812C812.829 248.828 815.024 250.336 818.249 250.336C821.268 250.336 823.463 248.76 824.835 245.538C826.208 242.316 826.894 237.175 826.894 229.977V164.035C826.894 159.168 825.659 155.877 823.189 154.301H835.333C832.863 155.877 831.628 159.168 831.628 164.035V229.977C831.628 238.546 830.462 244.784 828.06 248.691C825.727 252.598 821.885 254.586 816.602 254.586C811.182 254.586 806.928 252.735 803.978 249.034Z" stroke="#1D1910" stroke-miterlimit="10"/>
<path d="M843.292 243.413V164.035C843.292 159.168 842.057 155.877 839.587 154.301H857.425C854.955 155.877 853.721 159.168 853.721 164.035V243.413C853.721 248.28 854.955 251.57 857.425 253.147H839.587C842.057 251.57 843.292 248.28 843.292 243.413Z" stroke="#1D1910" stroke-miterlimit="10"/>
<path d="M902.708 164.035V253.147H895.093L871.628 168.422V243.413C871.628 248.28 872.863 251.57 875.333 253.147H863.12C865.59 251.57 866.825 248.28 866.825 243.413V164.035C866.825 159.168 865.59 155.877 863.12 154.301H878.695L897.906 223.191V164.035C897.906 159.168 896.671 155.877 894.201 154.301H906.345C903.875 155.877 902.708 159.099 902.708 164.035Z" stroke="#1D1910" stroke-miterlimit="10"/>
<path d="M936.327 154.301L952.588 253.147H935.779C938.317 251.364 939.621 248.828 939.621 245.538C939.621 244.578 939.552 243.893 939.484 243.413L937.768 231.965H917.254L915.401 243.413C915.333 243.893 915.264 244.578 915.264 245.538C915.264 248.828 916.568 251.364 919.106 253.147H909.226L925.762 154.301H936.327V154.301ZM927.683 167.393L917.94 227.715H937.014L927.683 167.393Z" stroke="#1D1910" stroke-miterlimit="10"/>
<path d="M153.482 293.521C157.53 298.045 160.548 303.94 162.538 311.344C164.528 318.747 165.488 326.63 165.488 335.061C165.488 343.63 164.459 351.787 162.401 359.533C160.343 367.278 157.255 373.585 153.276 378.383C149.296 383.182 144.562 385.581 139.073 385.581H123.499C125.969 384.004 127.204 380.714 127.204 375.847V296.469C127.204 291.602 125.969 288.312 123.499 286.735H138.799C144.494 286.735 149.434 288.997 153.482 293.521ZM147.924 374.476C149.982 369.678 151.629 363.44 152.864 355.762C154.099 348.085 154.717 340.271 154.717 332.251C154.717 320.598 153.276 310.795 150.463 302.844C147.65 294.961 143.327 290.985 137.633 290.985V380.645C138.868 381.331 139.965 381.605 140.994 381.605C143.602 381.674 145.866 379.274 147.924 374.476Z" stroke="#1D1910" stroke-miterlimit="10"/>
<path d="M207.341 315.731H205.626C205.626 310.247 205.145 305.791 204.116 302.227C203.156 298.662 201.234 295.92 198.421 293.932C195.608 291.945 191.56 290.985 186.415 290.985H183.19V314.154H185.454C186.963 314.154 188.267 313.537 189.365 312.372C190.463 311.206 191.012 309.698 191.012 307.779C191.012 306.065 190.531 304.283 189.571 302.432L191.149 301.61L207.409 336.912L205.969 337.597C203.43 332.593 200.343 328.138 196.775 324.231C193.207 320.323 189.502 318.404 185.591 318.404H183.19V381.399H186.415C191.629 381.399 195.608 380.44 198.421 378.452C201.234 376.464 203.156 373.722 204.116 370.158C205.077 366.593 205.626 362.137 205.626 356.654H207.341V385.581H169.056C171.526 384.004 172.761 380.714 172.761 375.847V296.469C172.761 291.602 171.526 288.312 169.056 286.735H207.341V315.731V315.731Z" stroke="#1D1910" stroke-miterlimit="10"/>
<path d="M269.227 339.722C272.315 346.234 273.824 353.158 273.824 360.492C273.824 368.033 272.178 374.339 268.953 379.411C265.728 384.484 260.994 387.02 254.888 387.02C253.104 387.02 251.046 386.815 248.644 386.335C244.871 385.855 242.401 385.649 241.166 385.649H232.246C234.716 384.073 235.951 380.782 235.951 375.916V296.469C235.951 291.602 234.716 288.312 232.246 286.735H250.36C257.221 286.735 262.915 288.449 267.375 291.945C271.835 295.441 274.099 300.582 274.099 307.505C274.099 310.864 273.275 314.017 271.697 316.827C270.119 319.638 267.924 321.9 265.248 323.614C262.572 325.327 259.691 326.218 256.672 326.287C261.955 328.755 266.14 333.21 269.227 339.722ZM259.828 296.332C257.083 292.767 252.624 290.985 246.38 290.985V319.638C248.37 321.626 250.634 322.585 253.31 322.585C256.26 322.585 258.73 321.42 260.788 319.021C262.847 316.69 263.876 313.4 263.876 309.15C263.944 304.215 262.572 299.965 259.828 296.332ZM259.759 376.395C261.817 372.282 262.778 367.21 262.778 361.041C262.778 353.98 261.406 346.988 258.73 340.065C256.054 333.142 252.143 327.589 247.066 323.339L246.38 322.791V381.125C248.095 382.085 249.742 382.565 251.32 382.565C254.888 382.496 257.701 380.44 259.759 376.395Z" stroke="#1D1910" stroke-miterlimit="10"/>
<path d="M284.802 372.282C281.44 362.412 279.725 350.21 279.725 335.609C279.725 319.775 281.371 307.436 284.665 298.594C287.958 289.751 293.035 285.295 299.759 285.295C306.62 285.295 311.697 289.682 314.853 298.457C318.078 307.231 319.656 319.569 319.656 335.609C319.656 350.416 318.01 362.686 314.716 372.42C311.423 382.153 306.346 387.02 299.622 387.02C293.173 387.02 288.233 382.085 284.802 372.282ZM306.277 370.363C307.169 361.315 307.649 349.73 307.649 335.609C307.649 321.763 307.169 310.452 306.277 301.61C305.385 292.836 303.258 288.38 299.828 288.38C296.397 288.38 294.27 292.836 293.31 301.747C292.349 310.658 291.869 321.9 291.869 335.541C291.869 349.456 292.349 361.041 293.31 370.157C294.27 379.274 296.397 383.867 299.69 383.867C303.19 383.936 305.385 379.411 306.277 370.363Z" stroke="#1D1910" stroke-miterlimit="10"/>
<path d="M363.567 296.469V385.581H355.951L332.486 300.856V375.847C332.486 380.714 333.721 384.004 336.191 385.581H324.047C326.517 384.004 327.752 380.714 327.752 375.847V296.469C327.752 291.602 326.517 288.312 324.047 286.735H339.622L358.833 355.625V296.469C358.833 291.602 357.598 288.312 355.128 286.735H367.272C364.802 288.38 363.567 291.602 363.567 296.469Z" stroke="#1D1910" stroke-miterlimit="10"/>
<path d="M418.661 293.521C422.709 298.045 425.728 303.94 427.718 311.344C429.708 318.678 430.668 326.63 430.668 335.061C430.668 343.63 429.639 351.787 427.581 359.533C425.522 367.278 422.435 373.585 418.455 378.383C414.476 383.182 409.742 385.581 404.253 385.581H388.678C391.148 384.004 392.383 380.714 392.383 375.847V296.469C392.383 291.602 391.148 288.312 388.678 286.735H403.979C409.742 286.735 414.613 288.997 418.661 293.521ZM413.172 374.476C415.231 369.678 416.877 363.44 418.112 355.762C419.347 348.085 419.965 340.271 419.965 332.251C419.965 320.598 418.524 310.795 415.711 302.844C412.898 294.961 408.576 290.985 402.881 290.985V380.645C404.116 381.331 405.214 381.605 406.243 381.605C408.781 381.674 411.045 379.274 413.172 374.476Z" stroke="#1D1910" stroke-miterlimit="10"/>
<path d="M472.52 315.731H470.805C470.805 310.247 470.325 305.791 469.296 302.227C468.335 298.662 466.414 295.92 463.601 293.932C460.788 291.945 456.74 290.985 451.594 290.985H448.37V314.154H450.634C452.143 314.154 453.447 313.537 454.545 312.372C455.642 311.206 456.191 309.698 456.191 307.779C456.191 306.065 455.711 304.283 454.75 302.432L456.328 301.61L472.589 336.912L471.148 337.597C468.61 332.593 465.522 328.138 461.954 324.231C458.387 320.323 454.682 318.404 450.771 318.404H448.37V381.399H451.594C456.809 381.399 460.788 380.44 463.601 378.452C466.414 376.464 468.335 373.722 469.296 370.158C470.256 366.593 470.805 362.137 470.805 356.654H472.52V385.581H434.236C436.706 384.004 437.941 380.714 437.941 375.847V296.469C437.941 291.602 436.706 288.312 434.236 286.735H472.52V315.731Z" stroke="#1D1910" stroke-miterlimit="10"/>
<path d="M545.248 290.094C544.424 291.67 543.738 293.795 543.189 296.537L524.664 395.657H523.704L505.179 295.92V295.783C504.699 293.453 504.081 291.533 503.326 290.094C502.572 288.654 501.474 287.558 500.102 286.804H519.724C517.186 288.586 515.882 291.122 515.882 294.412C515.882 295.372 515.951 296.057 516.019 296.537L526.037 353.432L526.723 363.166L527.683 353.295L537.975 296.537C538.181 295.441 538.249 294.686 538.249 294.275C538.249 292.493 537.838 290.985 537.014 289.683C536.191 288.38 535.299 287.42 534.27 286.804H548.541C547.237 287.42 546.071 288.517 545.248 290.094Z" stroke="#1D1910" stroke-miterlimit="10"/>
<path d="M588.472 315.731H586.757C586.757 310.247 586.277 305.791 585.247 302.227C584.287 298.662 582.366 295.92 579.553 293.932C576.74 291.945 572.692 290.985 567.546 290.985H564.321V314.154H566.585C568.095 314.154 569.398 313.537 570.496 312.372C571.594 311.206 572.143 309.698 572.143 307.779C572.143 306.065 571.663 304.283 570.702 302.432L572.28 301.61L588.541 336.912L587.1 337.597C584.561 332.593 581.474 328.138 577.906 324.231C574.338 320.323 570.633 318.404 566.723 318.404H564.321V381.399H567.546C572.76 381.399 576.74 380.44 579.553 378.452C582.366 376.464 584.287 373.722 585.247 370.158C586.208 366.593 586.757 362.137 586.757 356.654H588.472V385.581H550.188C552.657 384.004 553.892 380.714 553.892 375.847V296.469C553.892 291.602 552.657 288.312 550.188 286.735H588.472V315.731Z" stroke="#1D1910" stroke-miterlimit="10"/>
<path d="M618.592 327.864L625.522 328.96C628.129 336.089 630.325 344.521 632.108 354.117C633.824 363.714 635.608 375.641 637.391 389.831H635.264C631.903 376.807 628.129 365.085 624.012 354.529C619.896 343.972 614.681 333.553 608.232 323.202V375.916C608.232 380.782 609.467 384.073 611.937 385.649H594.098C596.568 384.073 597.803 380.782 597.803 375.916V296.469C597.803 291.602 596.568 288.312 594.098 286.735H612.211C616.465 286.735 620.582 287.489 624.63 289.066C628.678 290.642 632.04 293.041 634.716 296.332C637.391 299.622 638.764 303.666 638.764 308.465C638.764 311.961 637.803 315.114 635.882 317.856C633.961 320.666 631.422 322.791 628.335 324.368C625.247 325.944 621.954 326.63 618.592 326.561V327.864ZM623.258 296.126C620.65 292.699 615.642 290.985 608.3 290.985V319.638C610.496 321.831 613.103 322.86 616.191 322.86C619.21 322.86 621.817 321.694 623.944 319.432C626.139 317.102 627.168 313.743 627.168 309.219C627.168 303.94 625.865 299.553 623.258 296.126Z" stroke="#1D1910" stroke-miterlimit="10"/>
<path d="M679.93 315.731H678.215C678.215 310.247 677.735 305.791 676.705 302.227C675.745 298.662 673.824 295.92 671.011 293.932C668.198 291.945 664.15 290.985 659.004 290.985H655.779V314.154H658.043C659.553 314.154 660.856 313.537 661.954 312.372C663.052 311.206 663.601 309.698 663.601 307.779C663.601 306.065 663.121 304.283 662.16 302.432L663.738 301.61L679.999 336.912L678.558 337.597C676.019 332.593 672.932 328.138 669.364 324.231C665.796 320.323 662.091 318.404 658.181 318.404H655.779V381.399H659.004C664.218 381.399 668.198 380.44 671.011 378.452C673.824 376.464 675.745 373.722 676.705 370.158C677.666 366.593 678.215 362.137 678.215 356.654H679.93V385.581H641.646C644.115 384.004 645.35 380.714 645.35 375.847V296.469C645.35 291.602 644.115 288.312 641.646 286.735H679.93V315.731Z" stroke="#1D1910" stroke-miterlimit="10"/>
<path d="M716.294 341.779C718.352 345.412 720.067 349.388 721.577 353.706C723.086 358.025 723.841 362.274 723.841 366.387C723.841 372.351 722.331 377.286 719.381 381.331C716.431 385.375 712.451 387.432 707.58 387.432C701.954 387.432 696.534 382.565 691.319 372.899L690.496 387.02H688.918L684.115 349.593L685.419 349.045C688.987 358.162 692.966 366.182 697.22 372.968C701.474 379.823 705.041 383.182 707.923 383.182C712.177 383.182 714.304 380.234 714.304 374.407C714.304 369.541 713 364.194 710.324 358.367C707.717 352.609 704.012 345.686 699.278 337.666C694.407 329.303 690.77 322.585 688.369 317.444C686.036 312.372 684.801 307.299 684.801 302.364C684.801 297.291 686.174 293.178 688.987 290.025C691.731 286.872 695.436 285.295 700.102 285.295C707.511 285.295 712.589 289.408 715.196 297.565L717.597 286.666H718.901V322.654H717.597C716.637 312.852 714.784 304.9 712.108 298.731C709.364 292.561 706.208 289.477 702.64 289.477C700.376 289.477 698.661 290.299 697.426 291.876C696.191 293.453 695.573 295.852 695.573 298.936C695.573 302.638 696.671 306.819 698.866 311.481C701.062 316.21 704.15 321.626 707.992 327.864C711.559 333.553 714.304 338.146 716.294 341.779Z" stroke="#1D1910" stroke-miterlimit="10"/>
<path d="M424.699 57.3744H422.984C422.984 51.8906 422.503 47.435 421.474 43.8705C420.514 40.306 418.593 37.5641 415.78 35.5762C412.967 33.5884 408.919 32.6287 403.773 32.6287H400.548V55.7978H402.812C404.322 55.7978 405.625 55.1809 406.723 54.0156C407.821 52.8503 408.37 51.3422 408.37 49.4229C408.37 47.7092 407.889 45.927 406.929 44.0762L408.507 43.2536L424.768 78.5557L423.327 79.2411C420.788 74.2371 417.701 69.7815 414.133 65.8743C410.565 61.9671 406.86 59.9792 402.949 59.9792H400.548V122.975H403.773C408.987 122.975 412.967 122.015 415.78 120.027C418.593 118.039 420.514 115.297 421.474 111.733C422.435 108.168 422.984 103.713 422.984 98.2288H424.699V127.156H386.414C388.884 125.579 390.119 122.289 390.119 117.422V38.1811C390.119 33.3142 388.884 30.0239 386.414 28.4473H424.699V57.3744Z" stroke="#1D1910" stroke-miterlimit="10"/>
<path d="M454.819 69.5073L461.749 70.6041C464.356 77.7331 466.551 86.1644 468.335 95.7611C470.05 105.358 471.834 117.285 473.618 131.474H471.491C468.129 118.45 464.356 106.729 460.239 96.1724C456.123 85.616 450.908 75.1968 444.459 64.8461V117.559C444.459 122.426 445.694 125.716 448.164 127.293H430.325C432.795 125.716 434.03 122.426 434.03 117.559V38.1811C434.03 33.3142 432.795 30.0239 430.325 28.4473H448.438C452.692 28.4473 456.809 29.2013 460.857 30.7779C464.905 32.3545 468.267 34.7537 470.942 38.044C473.618 41.3343 474.99 45.3786 474.99 50.1769C474.99 53.6728 474.03 56.826 472.109 59.5679C470.188 62.3784 467.649 64.5034 464.562 66.08C461.474 67.6566 458.181 68.342 454.819 68.2735V69.5073ZM459.484 37.8383C456.877 34.4109 451.869 32.6972 444.527 32.6972V61.3502C446.723 63.5437 449.33 64.5719 452.418 64.5719C455.436 64.5719 458.044 63.4066 460.171 61.1445C462.366 58.8139 463.395 55.4551 463.395 50.9309C463.395 45.6528 462.092 41.2657 459.484 37.8383Z" stroke="#1D1910" stroke-miterlimit="10"/>
<path d="M502.16 28.4473L518.421 127.293H501.611C504.15 125.511 505.454 122.975 505.454 119.684C505.454 118.725 505.385 118.039 505.316 117.559L503.601 106.112H483.086L481.234 117.559C481.165 118.039 481.097 118.725 481.097 119.684C481.097 122.975 482.4 125.511 484.939 127.293H475.059L491.594 28.4473H502.16ZM493.515 41.6084L483.773 101.93H502.846L493.515 41.6084Z" stroke="#1D1910" stroke-miterlimit="10"/>
<path d="M549.844 117.559V38.1811C549.844 33.3142 548.609 30.0239 546.139 28.4473H563.978C561.508 30.0239 560.273 33.3142 560.273 38.1811V117.559C560.273 122.426 561.508 125.716 563.978 127.293H546.139C548.609 125.716 549.844 122.426 549.844 117.559Z" stroke="#1D1910" stroke-miterlimit="10"/>
<path d="M631.285 38.1811V127.293H623.669L600.205 42.5681V117.559C600.205 122.426 601.44 125.716 603.91 127.293H591.766C594.236 125.716 595.471 122.426 595.471 117.559V38.1811C595.471 33.3142 594.236 30.0239 591.766 28.4473H607.34L626.551 97.3377V38.1811C626.551 33.3142 625.316 30.0239 622.846 28.4473H634.99C632.52 30.0239 631.285 33.3142 631.285 38.1811Z" stroke="#1D1910" stroke-miterlimit="10"/>
<path d="M644.253 113.926C640.891 104.055 639.176 91.8539 639.176 77.2532C639.176 61.4187 640.822 49.0801 644.115 40.2375C647.409 31.3948 652.486 26.9392 659.21 26.9392C666.071 26.9392 671.148 31.3263 674.304 40.1004C677.529 48.8745 679.107 61.2131 679.107 77.2532C679.107 92.0595 677.46 104.33 674.167 114.063C670.874 123.797 665.796 128.664 659.073 128.664C652.623 128.733 647.683 123.797 644.253 113.926ZM665.728 112.075C666.62 103.027 667.1 91.4426 667.1 77.3218C667.1 63.4752 666.62 52.1648 665.728 43.3221C664.836 34.548 662.709 30.0924 659.278 30.0924C655.848 30.0924 653.721 34.548 652.76 43.4592C651.8 52.3704 651.32 63.6122 651.32 77.2532C651.32 91.1684 651.8 102.753 652.76 111.87C653.721 120.987 655.848 125.579 659.141 125.579C662.64 125.579 664.767 121.124 665.728 112.075Z" stroke="#1D1910" stroke-miterlimit="10"/>
<path d="M745.247 57.3744H743.532C743.532 51.8906 743.051 47.435 742.022 43.8705C741.062 40.306 739.141 37.5641 736.328 35.5762C733.515 33.5884 729.467 32.6287 724.321 32.6287H721.096V55.7978H723.36C724.87 55.7978 726.173 55.1809 727.271 54.0156C728.369 52.8503 728.918 51.3422 728.918 49.4229C728.918 47.7092 728.437 45.927 727.477 44.0762L729.055 43.2536L745.316 78.5557L743.875 79.2411C741.336 74.2371 738.249 69.7815 734.681 65.8743C731.113 61.9671 727.408 59.9792 723.498 59.9792H721.096V122.975H724.321C729.535 122.975 733.515 122.015 736.328 120.027C739.141 118.039 741.062 115.297 742.022 111.733C742.983 108.168 743.532 103.713 743.532 98.2288H745.247V127.156H706.962C709.432 125.579 710.667 122.289 710.667 117.422V38.1811C710.667 33.3142 709.432 30.0239 706.962 28.4473H745.247V57.3744V57.3744Z" stroke="#1D1910" stroke-miterlimit="10"/>
<path d="M775.367 69.5073L782.297 70.6041C784.904 77.7331 787.1 86.1644 788.884 95.7611C790.599 105.358 792.383 117.285 794.166 131.474H792.04C788.678 118.45 784.904 106.729 780.787 96.1724C776.671 85.616 771.456 75.1968 765.007 64.8461V117.559C765.007 122.426 766.242 125.716 768.712 127.293H750.873C753.343 125.716 754.578 122.426 754.578 117.559V38.1811C754.578 33.3142 753.343 30.0239 750.873 28.4473H768.986C773.24 28.4473 777.357 29.2013 781.405 30.7779C785.453 32.3545 788.815 34.7537 791.491 38.044C794.166 41.3343 795.539 45.3786 795.539 50.1769C795.539 53.6728 794.578 56.826 792.657 59.5679C790.736 62.3784 788.197 64.5034 785.11 66.08C782.022 67.6566 778.729 68.342 775.367 68.2735V69.5073ZM780.033 37.8383C777.426 34.4109 772.417 32.6972 765.076 32.6972V61.3502C767.271 63.5437 769.878 64.5719 772.966 64.5719C775.985 64.5719 778.592 63.4066 780.719 61.1445C782.914 58.8139 783.944 55.4551 783.944 50.9309C783.944 45.6528 782.64 41.2657 780.033 37.8383Z" stroke="#1D1910" stroke-miterlimit="10"/>
<path d="M822.708 28.4473L838.969 127.293H822.159C824.698 125.511 826.002 122.975 826.002 119.684C826.002 118.725 825.933 118.039 825.864 117.559L824.149 106.112H803.635L801.782 117.559C801.714 118.039 801.645 118.725 801.645 119.684C801.645 122.975 802.949 125.511 805.487 127.293H795.607L812.142 28.4473H822.708ZM814.063 41.6084L804.321 101.93H823.394L814.063 41.6084Z" stroke="#1D1910" stroke-miterlimit="10"/>
<path d="M232.452 28.4473L248.713 127.293H231.903C234.442 125.511 235.746 122.975 235.746 119.684C235.746 118.725 235.677 118.039 235.608 117.559L233.893 106.112H213.379L211.526 117.559C211.457 118.039 211.389 118.725 211.389 119.684C211.389 122.975 212.692 125.511 215.231 127.293H205.351L221.886 28.4473H232.452ZM223.876 41.6084L214.133 101.93H233.207L223.876 41.6084Z" stroke="#1D1910" stroke-miterlimit="10"/>
<path d="M255.231 117.559V38.1811C255.231 33.3142 253.996 30.0239 251.526 28.4473H269.365C266.895 30.0239 265.66 33.3142 265.66 38.1811V117.559C265.66 122.426 266.895 125.716 269.365 127.293H251.526C253.996 125.716 255.231 122.426 255.231 117.559Z" stroke="#1D1910" stroke-miterlimit="10"/>
<path d="M316.157 118.245C317.186 122.495 319.382 125.511 322.675 127.293H301.063C302.092 126.608 302.984 125.716 303.807 124.483C304.63 123.249 305.042 121.809 305.042 120.096C305.042 118.999 304.973 118.108 304.768 117.559L294.613 72.9347L281.44 117.559C281.166 118.519 281.028 119.342 281.028 120.096C281.028 121.672 281.44 123.112 282.263 124.346C283.087 125.579 284.047 126.539 285.145 127.293H270.874C272.383 126.608 273.481 125.648 274.099 124.277C274.785 122.906 275.54 120.644 276.363 117.559L292.075 64.8461L274.373 28.3787H290.085C288.85 29.3384 288.232 30.5723 288.232 32.2174C288.232 33.9311 288.781 35.919 289.948 38.1811L297.975 54.7011L309.708 34.3424C310.051 33.6569 310.256 33.04 310.256 32.3545C310.256 31.1206 309.57 29.8868 308.267 28.5158H318.696L301.749 58.3341L316.157 118.245Z" stroke="#1D1910" stroke-miterlimit="10"/>
<path d="M323.704 113.926C320.342 104.055 318.627 91.8539 318.627 77.2532C318.627 61.4187 320.274 49.0801 323.567 40.2375C326.86 31.3948 331.937 26.9392 338.73 26.9392C345.591 26.9392 350.668 31.3263 353.893 40.1004C357.117 48.8745 358.695 61.2131 358.695 77.2532C358.695 92.0595 357.049 104.33 353.756 114.063C350.462 123.797 345.385 128.664 338.593 128.664C332.075 128.733 327.135 123.797 323.704 113.926ZM345.111 112.075C346.003 103.027 346.483 91.4426 346.483 77.3218C346.483 63.4752 346.003 52.1648 345.111 43.3221C344.219 34.548 342.092 30.0924 338.661 30.0924C335.299 30.0924 333.104 34.548 332.143 43.4592C331.183 52.3704 330.702 63.6122 330.702 77.3218C330.702 91.237 331.183 102.822 332.143 111.938C333.104 121.055 335.231 125.648 338.524 125.648C342.023 125.579 344.219 121.055 345.111 112.075Z" stroke="#1D1910" stroke-miterlimit="10"/>
<path d="M352.589 25.4997L324.733 6.85476L329.536 0.548378L352.589 25.4997Z" stroke="#1D1910" stroke-miterlimit="10"/>
</g>
<defs>
<clipPath id="clip0_6_72">
<rect width="953" height="396" fill="white"/>
</clipPath>
</defs>
</svg>
