<svg width="284" height="233" viewBox="0 0 284 233" fill="none" xmlns="http://www.w3.org/2000/svg">
<g clip-path="url(#clip0_6_637)">
<path d="M43.1513 111.586C41.8306 109.927 41.1857 107.501 41.1857 104.307V73.5C41.1857 71.3192 40.6328 69.8449 39.5272 69.1385H47.5125C46.4068 69.8449 45.854 71.3192 45.854 73.5V103.047C45.854 106.426 46.0997 108.791 46.6218 110.142C47.1132 111.494 48.096 112.17 49.5395 112.17C50.8909 112.17 51.8737 111.463 52.4879 110.02C53.1022 108.576 53.4093 106.272 53.4093 103.047V73.5C53.4093 71.3192 52.8565 69.8449 51.7508 69.1385H57.187C56.0813 69.8449 55.5285 71.3192 55.5285 73.5V103.047C55.5285 106.887 55.0064 109.682 53.9314 111.432C52.8872 113.183 51.1673 114.074 48.8024 114.074C46.3761 114.074 44.4719 113.245 43.1513 111.586Z" stroke="#1D1910" stroke-width="0.557957" stroke-miterlimit="10"/>
<path d="M76.8124 73.5V113.429H73.4033L62.8995 75.4657V109.067C62.8995 111.248 63.4524 112.722 64.558 113.429H59.1219C60.2275 112.722 60.7804 111.248 60.7804 109.067V73.5C60.7804 71.3192 60.2275 69.8449 59.1219 69.1385H66.0937L74.6932 100.007V73.5C74.6932 71.3192 74.1404 69.8449 73.0347 69.1385H78.4709C77.3652 69.8449 76.8124 71.2885 76.8124 73.5Z" stroke="#1D1910" stroke-width="0.557957" stroke-miterlimit="10"/>
<path d="M91.8923 69.1385L99.1712 113.429H91.6466C92.7829 112.63 93.3665 111.494 93.3665 110.02C93.3665 109.59 93.3358 109.282 93.3051 109.067L92.5372 103.938H83.3541L82.5249 109.067C82.4942 109.282 82.4635 109.59 82.4635 110.02C82.4635 111.494 83.047 112.63 84.1834 113.429H79.7608L87.1625 69.1385H91.8923V69.1385ZM88.0225 75.005L83.6613 102.034H92.1994L88.0225 75.005Z" stroke="#1D1910" stroke-width="0.557957" stroke-miterlimit="10"/>
<path d="M112.285 110.603C110.688 108.3 109.521 105.32 108.723 101.635C107.924 97.9795 107.525 94.0787 107.525 89.9937C107.525 86.2465 107.863 82.7143 108.539 79.4279C109.214 76.1414 110.228 73.5 111.579 71.4728C112.93 69.4764 114.558 68.4628 116.462 68.4628C119.196 68.4628 121.069 70.5207 122.083 74.6671L121.499 69.0464H123.004V85.3865H122.513C122.083 83.0215 121.438 80.7179 120.547 78.4757C119.657 76.2336 118.704 74.4214 117.629 73.07C116.585 71.6878 115.633 71.0121 114.835 71.0121C113.852 71.0121 113.145 71.995 112.654 73.9914C112.163 75.9879 111.917 78.5986 111.917 81.9158C111.917 86.0622 112.255 90.4544 112.961 95.1537C113.668 99.8224 114.62 103.785 115.848 106.948C117.077 110.142 118.397 111.74 119.841 111.74C121.407 111.74 122.175 110.296 122.175 107.378C122.175 105.566 121.868 103.262 121.223 100.467H122.666C123.25 103.201 123.557 105.382 123.557 106.979C123.557 111.709 121.714 114.074 117.998 114.074C115.787 114.074 113.883 112.907 112.285 110.603Z" fill="#1D1910"/>
<path d="M142.63 82.1H141.862C141.862 79.6429 141.647 77.6464 141.186 76.0493C140.756 74.4521 139.896 73.2235 138.637 72.3328C137.378 71.4421 135.566 71.0121 133.262 71.0121H131.819V81.3936H132.832C133.508 81.3936 134.091 81.1172 134.583 80.595C135.074 80.0729 135.32 79.3972 135.32 78.5372C135.32 77.7693 135.105 76.9707 134.675 76.1414L135.381 75.7728L142.66 91.5909L142.015 91.898C140.879 89.6558 139.497 87.6594 137.9 85.9087C136.303 84.1579 134.644 83.2672 132.894 83.2672H131.819V111.494H133.262C135.596 111.494 137.378 111.064 138.637 110.173C139.896 109.282 140.756 108.054 141.186 106.457C141.616 104.86 141.862 102.863 141.862 100.406H142.63V113.367H125.492C126.598 112.661 127.15 111.187 127.15 109.006V73.5C127.15 71.3192 126.598 69.8449 125.492 69.1385H142.63V82.1V82.1Z" fill="#1D1910"/>
<path d="M156.112 87.5365L159.214 88.028C160.382 91.2223 161.364 95.0002 162.163 99.3002C162.931 103.6 163.729 108.945 164.528 115.302H163.576C162.071 109.467 160.381 104.215 158.539 99.4845C156.696 94.7545 154.362 90.0858 151.475 85.4479V109.067C151.475 111.248 152.028 112.722 153.133 113.429H145.148C146.254 112.722 146.807 111.248 146.807 109.067V73.5C146.807 71.3192 146.254 69.8449 145.148 69.1385H153.256C155.16 69.1385 157.003 69.4764 158.815 70.1828C160.627 70.8892 162.132 71.9642 163.33 73.4385C164.528 74.9128 165.142 76.725 165.142 78.875C165.142 80.4415 164.712 81.8543 163.852 83.0829C162.992 84.3422 161.856 85.2944 160.474 86.0008C159.092 86.7072 157.617 87.0144 156.112 86.9837V87.5365ZM158.201 73.3464C157.034 71.8107 154.792 71.0428 151.506 71.0428V83.8815C152.488 84.8644 153.655 85.3251 155.037 85.3251C156.389 85.3251 157.556 84.8029 158.508 83.7893C159.491 82.7451 159.952 81.24 159.952 79.2129C159.982 76.8171 159.368 74.8821 158.201 73.3464Z" fill="#1D1910"/>
<path d="M184.737 70.6128C184.368 71.3192 184.061 72.2714 183.815 73.5L175.523 117.913H175.093L166.8 73.2235V73.1621C166.585 72.1178 166.309 71.2578 165.971 70.6128C165.633 69.9678 165.142 69.4764 164.528 69.1385H173.312C172.175 69.9371 171.592 71.0735 171.592 72.5478C171.592 72.9778 171.622 73.285 171.653 73.5L176.137 98.9931L176.444 103.355L176.874 98.9316L181.481 73.5C181.573 73.0085 181.604 72.6707 181.604 72.4864C181.604 71.6878 181.42 71.0121 181.051 70.4285C180.683 69.8449 180.283 69.4149 179.823 69.1385H186.211C185.627 69.4149 185.105 69.9064 184.737 70.6128Z" fill="#1D1910"/>
<path d="M204.086 82.1H203.318C203.318 79.6429 203.103 77.6464 202.642 76.0493C202.212 74.4521 201.352 73.2235 200.093 72.3328C198.834 71.4421 197.022 71.0121 194.718 71.0121H193.275V81.3936H194.288C194.964 81.3936 195.548 81.1172 196.039 80.595C196.53 80.0729 196.776 79.3972 196.776 78.5372C196.776 77.7693 196.561 76.9707 196.131 76.1414L196.837 75.7728L204.116 91.5909L203.471 91.898C202.335 89.6558 200.953 87.6594 199.356 85.9087C197.759 84.1579 196.1 83.2672 194.35 83.2672H193.275V111.494H194.718C197.052 111.494 198.834 111.064 200.093 110.173C201.352 109.282 202.212 108.054 202.642 106.457C203.072 104.86 203.318 102.863 203.318 100.406H204.086V113.367H186.948C188.054 112.661 188.606 111.187 188.606 109.006V73.5C188.606 71.3192 188.054 69.8449 186.948 69.1385H204.086V82.1Z" fill="#1D1910"/>
<path d="M220.363 93.7716C221.285 95.3995 222.053 97.1809 222.728 99.1159C223.404 101.051 223.742 102.955 223.742 104.798C223.742 107.47 223.066 109.682 221.745 111.494C220.425 113.306 218.643 114.227 216.463 114.227C213.944 114.227 211.518 112.047 209.184 107.716L208.815 114.043H208.109L205.959 97.2731L206.543 97.0273C208.14 101.112 209.921 104.706 211.825 107.747C213.729 110.818 215.326 112.323 216.616 112.323C218.521 112.323 219.473 111.002 219.473 108.392C219.473 106.211 218.889 103.815 217.691 101.205C216.524 98.6245 214.866 95.5223 212.747 91.9287C210.566 88.1815 208.938 85.1715 207.863 82.8679C206.819 80.595 206.266 78.3222 206.266 76.1107C206.266 73.8378 206.88 71.995 208.14 70.5821C209.399 69.1692 211.027 68.4628 213.115 68.4628C216.432 68.4628 218.705 70.3057 219.872 73.9607L220.947 69.0771H221.53V85.2022H220.947C220.517 80.81 219.688 77.2472 218.49 74.4828C217.261 71.7185 215.849 70.3364 214.252 70.3364C213.238 70.3364 212.47 70.7049 211.917 71.4114C211.365 72.1178 211.088 73.1928 211.088 74.575C211.088 76.2336 211.58 78.1072 212.562 80.1958C213.545 82.3151 214.927 84.7415 216.647 87.5365C218.244 90.0858 219.473 92.1437 220.363 93.7716Z" fill="#1D1910"/>
<path d="M237.163 69.1385L244.442 113.429H236.917C238.054 112.63 238.637 111.494 238.637 110.02C238.637 109.59 238.607 109.282 238.576 109.067L237.808 103.938H228.625L227.796 109.067C227.765 109.282 227.734 109.59 227.734 110.02C227.734 111.494 228.318 112.63 229.454 113.429H225.032L232.433 69.1385H237.163V69.1385ZM233.324 75.005L228.963 102.034H237.501L233.324 75.005Z" fill="#1D1910"/>
<path d="M21.0382 186.192C22.8502 188.219 24.2016 190.86 25.0922 194.178C25.9829 197.495 26.4129 201.027 26.4129 204.805C26.4129 208.644 25.9522 212.299 25.0308 215.77C24.1094 219.241 22.7274 222.066 20.946 224.216C19.1647 226.366 17.0455 227.441 14.5885 227.441H7.61673C8.72239 226.735 9.27521 225.261 9.27521 223.08V187.512C9.27521 185.332 8.72239 183.857 7.61673 183.151H14.4657C17.0455 183.151 19.2261 184.165 21.0382 186.192ZM18.5812 222.466C19.5025 220.316 20.2396 217.521 20.7925 214.081C21.3453 210.641 21.6217 207.139 21.6217 203.545C21.6217 198.324 20.9767 193.932 19.7175 190.369C18.4583 186.837 16.5234 185.055 13.9743 185.055V225.23C14.5271 225.537 15.0185 225.66 15.4792 225.66C16.6155 225.691 17.6291 224.616 18.5812 222.466Z" stroke="#1D1910" stroke-width="0.557957" stroke-miterlimit="10"/>
<path d="M45.1476 196.143H44.3798C44.3798 193.686 44.1648 191.69 43.7041 190.092C43.2741 188.495 42.4142 187.267 41.155 186.376C39.8958 185.485 38.0837 185.055 35.7803 185.055H34.3368V195.437H35.3503C36.026 195.437 36.6095 195.16 37.1009 194.638C37.5923 194.116 37.838 193.44 37.838 192.58C37.838 191.813 37.623 191.014 37.193 190.185L37.8994 189.816L45.1783 205.634L44.5334 205.941C43.397 203.699 42.0149 201.703 40.4179 199.952C38.8208 198.201 37.1623 197.341 35.4117 197.341H34.3368V225.568H35.7803C38.1144 225.568 39.8958 225.138 41.155 224.247C42.4142 223.356 43.2741 222.128 43.7041 220.531C44.1341 218.933 44.3798 216.937 44.3798 214.48H45.1476V227.441H28.0099C29.1156 226.735 29.6684 225.261 29.6684 223.08V187.512C29.6684 185.332 29.1156 183.857 28.0099 183.151H45.1476V196.143Z" stroke="#1D1910" stroke-width="0.557957" stroke-miterlimit="10"/>
<path d="M72.8504 206.893C74.2325 209.811 74.9082 212.913 74.9082 216.2C74.9082 219.578 74.1711 222.404 72.7276 224.677C71.2841 226.95 69.1649 228.086 66.4315 228.086C65.6329 228.086 64.7116 227.994 63.6366 227.779C61.9474 227.564 60.8418 227.472 60.2889 227.472H56.2963C57.402 226.766 57.9548 225.291 57.9548 223.111V187.512C57.9548 185.332 57.402 183.857 56.2963 183.151H64.4044C67.4757 183.151 70.0249 183.919 72.0212 185.485C74.0175 187.052 75.031 189.355 75.031 192.458C75.031 193.963 74.6625 195.375 73.9561 196.635C73.2497 197.894 72.2669 198.908 71.0691 199.675C69.8713 200.443 68.5814 200.843 67.23 200.873C69.6256 201.979 71.4684 203.975 72.8504 206.893ZM68.6428 187.451C67.4143 185.854 65.418 185.055 62.6231 185.055V197.894C63.5138 198.785 64.5273 199.215 65.7251 199.215C67.0457 199.215 68.1514 198.693 69.0728 197.618C69.9941 196.573 70.4548 195.099 70.4548 193.195C70.4855 190.983 69.8713 189.079 68.6428 187.451ZM68.6121 223.326C69.5335 221.483 69.9634 219.21 69.9634 216.446C69.9634 213.282 69.3492 210.149 68.1514 207.047C66.9536 203.945 65.203 201.457 62.9302 199.553L62.6231 199.307V225.445C63.3909 225.875 64.128 226.09 64.8344 226.09C66.4622 226.059 67.6907 225.138 68.6121 223.326Z" stroke="#1D1910" stroke-width="0.557957" stroke-miterlimit="10"/>
<path d="M79.8529 221.483C78.348 217.06 77.5802 211.593 77.5802 205.05C77.5802 197.955 78.3173 192.427 79.7915 188.465C81.2657 184.502 83.5384 182.506 86.5483 182.506C89.6196 182.506 91.8923 184.472 93.3051 188.403C94.7486 192.335 95.455 197.863 95.455 205.05C95.455 211.685 94.7179 217.183 93.2436 221.544C91.7694 225.906 89.4967 228.086 86.4869 228.086C83.5692 228.086 81.3579 225.875 79.8529 221.483ZM89.4353 220.623C89.8345 216.568 90.0495 211.378 90.0495 205.05C90.0495 198.846 89.8345 193.778 89.4353 189.816C89.036 185.885 88.0839 183.888 86.5483 183.888C85.0127 183.888 84.0606 185.885 83.6306 189.878C83.2006 193.87 82.9856 198.908 82.9856 205.02C82.9856 211.255 83.2006 216.446 83.6306 220.531C84.0606 224.616 85.0127 226.674 86.4869 226.674C88.0532 226.704 89.036 224.677 89.4353 220.623Z" stroke="#1D1910" stroke-width="0.557957" stroke-miterlimit="10"/>
<path d="M115.08 187.512V227.441H111.671L101.167 189.478V223.08C101.167 225.261 101.72 226.735 102.826 227.441H97.3591C98.4648 226.735 99.0176 225.261 99.0176 223.08V187.512C99.0176 185.332 98.4648 183.857 97.3591 183.151H104.331L112.93 214.019V187.512C112.93 185.332 112.378 183.857 111.272 183.151H116.708C115.633 183.888 115.08 185.332 115.08 187.512Z" stroke="#1D1910" stroke-width="0.557957" stroke-miterlimit="10"/>
<path d="M139.743 186.192C141.555 188.219 142.906 190.86 143.797 194.178C144.687 197.464 145.117 201.027 145.117 204.805C145.117 208.644 144.657 212.299 143.735 215.77C142.814 219.241 141.432 222.066 139.65 224.216C137.869 226.366 135.75 227.441 133.293 227.441H126.321C127.427 226.735 127.98 225.261 127.98 223.08V187.512C127.98 185.332 127.427 183.857 126.321 183.151H133.17C135.75 183.151 137.931 184.165 139.743 186.192ZM137.286 222.466C138.207 220.316 138.944 217.521 139.497 214.081C140.05 210.641 140.326 207.139 140.326 203.545C140.326 198.324 139.681 193.932 138.422 190.369C137.163 186.837 135.228 185.055 132.679 185.055V225.23C133.232 225.537 133.723 225.66 134.184 225.66C135.32 225.691 136.364 224.616 137.286 222.466Z" stroke="#1D1910" stroke-width="0.557957" stroke-miterlimit="10"/>
<path d="M163.852 196.143H163.084C163.084 193.686 162.869 191.69 162.409 190.092C161.979 188.495 161.119 187.267 159.859 186.376C158.6 185.485 156.788 185.055 154.485 185.055H153.041V195.437H154.055C154.73 195.437 155.314 195.16 155.805 194.638C156.297 194.116 156.542 193.44 156.542 192.58C156.542 191.813 156.327 191.014 155.897 190.185L156.604 189.816L163.883 205.634L163.238 205.941C162.101 203.699 160.719 201.703 159.122 199.952C157.525 198.201 155.867 197.341 154.116 197.341H153.041V225.568H154.485C156.819 225.568 158.6 225.138 159.859 224.247C161.119 223.356 161.979 222.128 162.409 220.531C162.839 218.933 163.084 216.937 163.084 214.48H163.852V227.441H146.714C147.82 226.735 148.373 225.261 148.373 223.08V187.512C148.373 185.332 147.82 183.857 146.714 183.151H163.852V196.143Z" stroke="#1D1910" stroke-width="0.557957" stroke-miterlimit="10"/>
<path d="M196.438 184.656C196.07 185.362 195.763 186.315 195.517 187.543L187.224 231.956H186.794L178.502 187.267V187.205C178.287 186.161 178.011 185.301 177.673 184.656C177.335 184.011 176.844 183.52 176.229 183.182H185.013C183.877 183.98 183.293 185.117 183.293 186.591C183.293 187.021 183.324 187.328 183.355 187.543L187.839 213.036L188.146 217.398L188.576 212.975L193.183 187.543C193.275 187.052 193.306 186.714 193.306 186.53C193.306 185.731 193.121 185.055 192.753 184.472C192.384 183.888 191.985 183.458 191.524 183.182H197.912C197.298 183.458 196.776 183.95 196.438 184.656Z" stroke="#1D1910" stroke-width="0.557957" stroke-miterlimit="10"/>
<path d="M215.756 196.143H214.989C214.989 193.686 214.774 191.69 214.313 190.092C213.883 188.495 213.023 187.267 211.764 186.376C210.505 185.485 208.693 185.055 206.389 185.055H204.946V195.437H205.959C206.635 195.437 207.218 195.16 207.71 194.638C208.201 194.116 208.447 193.44 208.447 192.58C208.447 191.813 208.232 191.014 207.802 190.185L208.508 189.816L215.787 205.634L215.142 205.941C214.006 203.699 212.624 201.703 211.027 199.952C209.43 198.201 207.771 197.341 206.021 197.341H204.946V225.568H206.389C208.723 225.568 210.505 225.138 211.764 224.247C213.023 223.356 213.883 222.128 214.313 220.531C214.743 218.933 214.989 216.937 214.989 214.48H215.756V227.441H198.619C199.724 226.735 200.277 225.261 200.277 223.08V187.512C200.277 185.332 199.724 183.857 198.619 183.151H215.756V196.143Z" stroke="#1D1910" stroke-width="0.557957" stroke-miterlimit="10"/>
<path d="M229.239 201.58L232.341 202.071C233.508 205.265 234.491 209.043 235.29 213.343C236.058 217.643 236.856 222.988 237.655 229.346H236.702C235.198 223.51 233.508 218.258 231.666 213.528C229.823 208.798 227.489 204.129 224.602 199.491V223.111C224.602 225.291 225.155 226.766 226.26 227.472H218.275C219.381 226.766 219.933 225.291 219.933 223.111V187.512C219.933 185.332 219.381 183.857 218.275 183.151H226.383C228.287 183.151 230.13 183.489 231.942 184.195C233.754 184.902 235.259 185.977 236.457 187.451C237.655 188.925 238.269 190.737 238.269 192.888C238.269 194.454 237.839 195.867 236.979 197.095C236.119 198.355 234.983 199.307 233.6 200.013C232.218 200.72 230.744 201.027 229.239 200.996V201.58ZM231.328 187.359C230.161 185.823 227.919 185.055 224.632 185.055V197.894C225.615 198.877 226.782 199.338 228.164 199.338C229.516 199.338 230.683 198.815 231.635 197.802C232.618 196.758 233.078 195.253 233.078 193.225C233.109 190.86 232.495 188.895 231.328 187.359Z" stroke="#1D1910" stroke-width="0.557957" stroke-miterlimit="10"/>
<path d="M256.696 196.143H255.929C255.929 193.686 255.714 191.69 255.253 190.092C254.823 188.495 253.963 187.267 252.704 186.376C251.445 185.485 249.633 185.055 247.329 185.055H245.886V195.437H246.899C247.575 195.437 248.158 195.16 248.65 194.638C249.141 194.116 249.387 193.44 249.387 192.58C249.387 191.813 249.172 191.014 248.742 190.185L249.448 189.816L256.727 205.634L256.082 205.941C254.946 203.699 253.564 201.703 251.967 199.952C250.37 198.201 248.711 197.341 246.961 197.341H245.886V225.568H247.329C249.663 225.568 251.445 225.138 252.704 224.247C253.963 223.356 254.823 222.128 255.253 220.531C255.683 218.933 255.929 216.937 255.929 214.48H256.696V227.441H239.559C240.664 226.735 241.217 225.261 241.217 223.08V187.512C241.217 185.332 240.664 183.857 239.559 183.151H256.696V196.143Z" stroke="#1D1910" stroke-width="0.557957" stroke-miterlimit="10"/>
<path d="M273.005 207.815C273.926 209.443 274.694 211.224 275.37 213.159C276.045 215.094 276.383 216.998 276.383 218.841C276.383 221.513 275.708 223.725 274.387 225.537C273.066 227.349 271.285 228.271 269.104 228.271C266.586 228.271 264.16 226.09 261.825 221.759L261.457 228.086H260.751L258.601 211.316L259.184 211.071C260.781 215.156 262.563 218.749 264.467 221.79C266.371 224.861 267.968 226.366 269.258 226.366C271.162 226.366 272.114 225.046 272.114 222.435C272.114 220.254 271.531 217.858 270.333 215.248C269.166 212.668 267.507 209.566 265.388 205.972C263.208 202.225 261.58 199.215 260.505 196.911C259.461 194.638 258.908 192.365 258.908 190.154C258.908 187.881 259.522 186.038 260.781 184.625C262.01 183.212 263.668 182.506 265.757 182.506C269.074 182.506 271.346 184.349 272.513 188.004L273.588 183.12H274.172V199.245H273.588C273.158 194.853 272.329 191.29 271.131 188.526C269.903 185.762 268.49 184.38 266.893 184.38C265.88 184.38 265.112 184.748 264.559 185.455C264.006 186.161 263.73 187.236 263.73 188.618C263.73 190.277 264.221 192.15 265.204 194.239C266.187 196.358 267.569 198.785 269.289 201.58C270.855 204.129 272.083 206.187 273.005 207.815Z" stroke="#1D1910" stroke-width="0.557957" stroke-miterlimit="10"/>
<path d="M98.3726 25.7081H97.6048C97.6048 23.2509 97.3898 21.2545 96.9292 19.6573C96.4992 18.0602 95.6392 16.8316 94.38 15.9409C93.1208 15.0501 91.3087 14.6201 89.0053 14.6201H87.5618V25.0017H88.5753C89.251 25.0017 89.8345 24.7252 90.3259 24.2031C90.8173 23.6809 91.063 23.0052 91.063 22.1452C91.063 21.3773 90.848 20.5788 90.4181 19.7495L91.1245 19.3809L98.4034 35.1989L97.7584 35.506C96.622 33.2639 95.24 31.2674 93.6429 29.5167C92.0458 27.766 90.3874 26.8753 88.6367 26.8753H87.5618V55.1019H89.0053C91.3394 55.1019 93.1208 54.6719 94.38 53.7812C95.6392 52.8905 96.4992 51.6619 96.9292 50.0648C97.3591 48.4676 97.6048 46.4712 97.6048 44.014H98.3726V56.9755H81.235C82.3406 56.2691 82.8935 54.7948 82.8935 52.6141V17.108C82.8935 14.9273 82.3406 13.453 81.235 12.7466H98.3726V25.7081V25.7081Z" stroke="#1D1910" stroke-width="0.557957" stroke-miterlimit="10"/>
<path d="M111.856 31.1446L114.958 31.636C116.125 34.8303 117.107 38.6082 117.906 42.9083C118.674 47.2083 119.472 52.5526 120.271 58.9105H119.319C117.814 53.0748 116.125 47.8226 114.282 43.0925C112.439 38.3625 110.105 33.6939 107.218 29.056V52.6755C107.218 54.8562 107.771 56.3305 108.876 57.037H100.891C101.997 56.3305 102.55 54.8562 102.55 52.6755V17.108C102.55 14.9273 101.997 13.453 100.891 12.7466H108.999C110.903 12.7466 112.746 13.0844 114.558 13.7908C116.37 14.4973 117.875 15.5723 119.073 17.0466C120.271 18.5209 120.885 20.333 120.885 22.4831C120.885 24.0495 120.455 25.4624 119.595 26.691C118.735 27.9503 117.599 28.9024 116.217 29.6089C114.835 30.3153 113.36 30.6224 111.856 30.5917V31.1446ZM113.944 16.9544C112.777 15.4187 110.535 14.6509 107.249 14.6509V27.4895C108.231 28.4724 109.399 28.9331 110.781 28.9331C112.132 28.9331 113.299 28.411 114.251 27.3974C115.234 26.3531 115.695 24.8481 115.695 22.8209C115.725 20.4559 115.111 18.4902 113.944 16.9544Z" stroke="#1D1910" stroke-width="0.557957" stroke-miterlimit="10"/>
<path d="M133.047 12.7466L140.326 57.037H132.802C133.938 56.2384 134.521 55.1019 134.521 53.6276C134.521 53.1976 134.491 52.8905 134.46 52.6755L133.692 47.5462H124.509L123.68 52.6755C123.649 52.8905 123.618 53.1976 123.618 53.6276C123.618 55.1019 124.202 56.2384 125.338 57.037H120.916L128.317 12.7466H133.047ZM129.177 18.6437L124.816 45.6726H133.354L129.177 18.6437Z" stroke="#1D1910" stroke-width="0.557957" stroke-miterlimit="10"/>
<path d="M154.393 52.6755V17.108C154.393 14.9273 153.84 13.453 152.734 12.7466H160.719C159.614 13.453 159.061 14.9273 159.061 17.108V52.6755C159.061 54.8562 159.614 56.3305 160.719 57.037H152.734C153.84 56.3305 154.393 54.8562 154.393 52.6755Z" stroke="#1D1910" stroke-width="0.557957" stroke-miterlimit="10"/>
<path d="M190.848 17.108V57.037H187.439L176.936 19.0738V52.6755C176.936 54.8562 177.488 56.3305 178.594 57.037H173.158C174.264 56.3305 174.816 54.8562 174.816 52.6755V17.108C174.816 14.9273 174.264 13.453 173.158 12.7466H180.13L188.729 43.6147V17.108C188.729 14.9273 188.176 13.453 187.071 12.7466H192.507C191.401 13.453 190.848 14.9273 190.848 17.108Z" stroke="#1D1910" stroke-width="0.557957" stroke-miterlimit="10"/>
<path d="M196.684 51.0476C195.179 46.6247 194.411 41.1575 194.411 34.6153C194.411 27.5203 195.148 21.9916 196.622 18.0295C198.097 14.0673 200.369 12.0708 203.379 12.0708C206.451 12.0708 208.723 14.0366 210.136 17.968C211.58 21.8995 212.286 27.4281 212.286 34.6153C212.286 41.2497 211.549 46.7476 210.075 51.109C208.6 55.4705 206.328 57.6513 203.318 57.6513C200.4 57.682 198.189 55.4705 196.684 51.0476ZM206.266 50.2183C206.666 46.164 206.88 40.9732 206.88 34.646C206.88 28.4417 206.666 23.3738 206.266 19.4116C205.867 15.4801 204.915 13.4837 203.379 13.4837C201.844 13.4837 200.892 15.4801 200.462 19.473C200.032 23.4659 199.817 28.5031 199.817 34.6153C199.817 40.8504 200.032 46.0411 200.462 50.1262C200.892 54.2112 201.844 56.2691 203.318 56.2691C204.884 56.2691 205.867 54.2727 206.266 50.2183Z" stroke="#1D1910" stroke-width="0.557957" stroke-miterlimit="10"/>
<path d="M241.862 25.7081H241.094C241.094 23.2509 240.879 21.2545 240.419 19.6573C239.989 18.0602 239.129 16.8316 237.87 15.9409C236.61 15.0501 234.798 14.6201 232.495 14.6201H231.051V25.0017H232.065C232.741 25.0017 233.324 24.7252 233.816 24.2031C234.307 23.6809 234.553 23.0052 234.553 22.1452C234.553 21.3773 234.338 20.5788 233.908 19.7495L234.614 19.3809L241.893 35.1989L241.248 35.506C240.112 33.2639 238.73 31.2674 237.132 29.5167C235.535 27.766 233.877 26.8753 232.126 26.8753H231.051V55.1019H232.495C234.829 55.1019 236.61 54.6719 237.87 53.7812C239.129 52.8905 239.989 51.6619 240.419 50.0648C240.849 48.4676 241.094 46.4712 241.094 44.014H241.862V56.9755H224.725C225.83 56.2691 226.383 54.7948 226.383 52.6141V17.108C226.383 14.9273 225.83 13.453 224.725 12.7466H241.862V25.7081Z" stroke="#1D1910" stroke-width="0.557957" stroke-miterlimit="10"/>
<path d="M255.345 31.1446L258.447 31.636C259.614 34.8303 260.597 38.6082 261.395 42.9083C262.163 47.2083 262.962 52.5526 263.76 58.9105H262.808C261.303 53.0748 259.614 47.8226 257.771 43.0925C255.929 38.3625 253.594 33.6939 250.707 29.056V52.6755C250.707 54.8562 251.26 56.3305 252.366 57.037H244.381C245.486 56.3305 246.039 54.8562 246.039 52.6755V17.108C246.039 14.9273 245.486 13.453 244.381 12.7466H252.489C254.393 12.7466 256.236 13.0844 258.048 13.7908C259.86 14.4973 261.365 15.5723 262.563 17.0466C263.76 18.5209 264.375 20.333 264.375 22.4831C264.375 24.0495 263.945 25.4624 263.085 26.691C262.225 27.9503 261.088 28.9024 259.706 29.6089C258.324 30.3153 256.85 30.6224 255.345 30.5917V31.1446ZM257.434 16.9544C256.266 15.4187 254.024 14.6509 250.738 14.6509V27.4895C251.721 28.4724 252.888 28.9331 254.27 28.9331C255.622 28.9331 256.789 28.411 257.741 27.3974C258.723 26.3531 259.184 24.8481 259.184 22.8209C259.215 20.4559 258.601 18.4902 257.434 16.9544Z" stroke="#1D1910" stroke-width="0.557957" stroke-miterlimit="10"/>
<path d="M276.537 12.7466L283.816 57.037H276.291C277.427 56.2384 278.011 55.1019 278.011 53.6276C278.011 53.1976 277.98 52.8905 277.95 52.6755L277.182 47.5462H267.999L267.169 52.6755C267.139 52.8905 267.108 53.1976 267.108 53.6276C267.108 55.1019 267.692 56.2384 268.828 57.037H264.405L271.807 12.7466H276.537ZM272.698 18.6437L268.337 45.6726H276.875L272.698 18.6437Z" stroke="#1D1910" stroke-width="0.557957" stroke-miterlimit="10"/>
<path d="M12.3465 12.7466L19.6254 57.037H12.0701C13.2064 56.2384 13.79 55.1019 13.79 53.6276C13.79 53.1976 13.7593 52.8905 13.7286 52.6755L12.9607 47.5462H3.77765L2.9484 52.6755C2.91769 52.8905 2.88698 53.1976 2.88698 53.6276C2.88698 55.1019 3.47052 56.2384 4.60689 57.037H0.184265L7.58602 12.7466H12.3465ZM8.47668 18.6437L4.11549 45.6726H12.6536L8.47668 18.6437Z" stroke="#1D1910" stroke-width="0.557957" stroke-miterlimit="10"/>
<path d="M22.5124 52.6755V17.108C22.5124 14.9273 21.9595 13.453 20.8539 12.7466H28.8392C27.7335 13.453 27.1807 14.9273 27.1807 17.108V52.6755C27.1807 54.8562 27.7335 56.3305 28.8392 57.037H20.8846C21.9595 56.3305 22.5124 54.8562 22.5124 52.6755Z" stroke="#1D1910" stroke-width="0.557957" stroke-miterlimit="10"/>
<path d="M49.7852 52.9826C50.2459 54.8869 51.2287 56.2384 52.7029 57.037H43.0284C43.4891 56.7298 43.8884 56.3305 44.2569 55.7777C44.6255 55.2248 44.8098 54.5798 44.8098 53.8119C44.8098 53.3205 44.7791 52.9212 44.6869 52.6755L40.1415 32.6803L34.2446 52.6755C34.1218 53.1055 34.0603 53.4741 34.0603 53.8119C34.0603 54.5184 34.2446 55.1634 34.6132 55.7162C34.9817 56.2691 35.4117 56.6991 35.9031 57.037H29.4842C30.1598 56.7298 30.6512 56.2998 30.9277 55.6855C31.2348 55.0712 31.5726 54.0577 31.9412 52.6755L38.9744 29.056L31.0505 12.7158H38.0837C37.5309 13.1458 37.2545 13.6987 37.2545 14.4359C37.2545 15.2037 37.5002 16.0944 38.0223 17.108L41.6157 24.5102L46.8675 15.388C47.0211 15.0809 47.1132 14.8044 47.1132 14.4973C47.1132 13.9444 46.8061 13.3916 46.2226 12.7773H50.8909L43.3049 26.1381L49.7852 52.9826Z" stroke="#1D1910" stroke-width="0.557957" stroke-miterlimit="10"/>
<path d="M53.1636 51.0476C51.6587 46.6247 50.8909 41.1575 50.8909 34.6153C50.8909 27.5203 51.628 21.9916 53.1022 18.0295C54.5764 14.0673 56.8491 12.0708 59.8897 12.0708C62.961 12.0708 65.2337 14.0366 66.6772 17.968C68.1207 21.8995 68.8271 27.4281 68.8271 34.6153C68.8271 41.2497 68.09 46.7476 66.6158 51.109C65.1416 55.4705 62.8688 57.6513 59.8283 57.6513C56.9106 57.682 54.6992 55.4705 53.1636 51.0476ZM62.7767 50.2183C63.1759 46.164 63.3909 40.9732 63.3909 34.646C63.3909 28.4417 63.1759 23.3738 62.7767 19.4116C62.3774 15.4801 61.4253 13.4837 59.8897 13.4837C58.3848 13.4837 57.402 15.4801 56.972 19.473C56.542 23.4659 56.327 28.5031 56.327 34.646C56.327 40.8811 56.542 46.0719 56.972 50.1569C57.402 54.2419 58.3541 56.2998 59.8283 56.2998C61.3946 56.2691 62.3467 54.2419 62.7767 50.2183Z" stroke="#1D1910" stroke-width="0.557957" stroke-miterlimit="10"/>
<path d="M66.0936 11.4258L53.6243 3.07147L55.7742 0.245728L66.0936 11.4258Z" stroke="#1D1910" stroke-width="0.557957" stroke-miterlimit="10"/>
<path d="M59.644 166.166C59.644 168.347 60.1968 169.821 61.3025 170.527H53.3172C54.4228 169.821 54.9757 168.347 54.9757 166.166V132.626L49.7238 155.661V155.723L47.5739 165.337L47.5125 165.214V165.029L40.1107 133.516V166.166C40.1107 168.347 40.6636 169.821 41.7692 170.527H36.3331C37.4387 169.821 37.9916 168.347 37.9916 166.166V130.598C37.9916 128.418 37.4387 126.943 36.3331 126.237H43.3048L48.741 151.116L54.3614 126.237H61.3332C60.2275 126.943 59.6747 128.418 59.6747 130.598V166.166H59.644Z" stroke="#1D1910" stroke-width="0.557957" stroke-miterlimit="10"/>
<path d="M74.6932 126.237L81.9721 170.527H74.4475C75.5838 169.729 76.1674 168.592 76.1674 167.118C76.1674 166.688 76.1367 166.381 76.106 166.166L75.3381 161.037H66.1551L65.3258 166.166C65.2951 166.381 65.2644 166.688 65.2644 167.118C65.2644 168.592 65.8479 169.729 66.9843 170.527H62.5617L69.9634 126.237H74.6932ZM70.8541 132.134L66.4929 159.163H75.031L70.8541 132.134Z" stroke="#1D1910" stroke-width="0.557957" stroke-miterlimit="10"/>
<path d="M98.9562 157.566V170.527H83.2621C84.3677 169.821 84.9205 168.347 84.9205 166.166V130.598C84.9205 128.418 84.3677 126.943 83.2621 126.237H91.2473C90.1417 126.943 89.5889 128.418 89.5889 130.598V168.623C91.923 168.623 93.7044 168.193 94.9636 167.302C96.2228 166.412 97.0827 165.183 97.5127 163.586C97.9427 161.989 98.1884 159.992 98.1884 157.535H98.9562V157.566Z" stroke="#1D1910" stroke-width="0.557957" stroke-miterlimit="10"/>
<path d="M115.91 157.566V170.527H100.215C101.321 169.821 101.874 168.347 101.874 166.166V130.598C101.874 128.418 101.321 126.943 100.215 126.237H108.201C107.095 126.943 106.542 128.418 106.542 130.598V168.623C108.876 168.623 110.658 168.193 111.917 167.302C113.176 166.412 114.036 165.183 114.466 163.586C114.896 161.989 115.142 159.992 115.142 157.535H115.91V157.566Z" stroke="#1D1910" stroke-width="0.557957" stroke-miterlimit="10"/>
<path d="M118.797 164.569C117.292 160.146 116.524 154.679 116.524 148.136C116.524 141.041 117.261 135.513 118.735 131.551C120.209 127.588 122.482 125.592 125.492 125.592C128.563 125.592 130.836 127.558 132.249 131.489C133.692 135.421 134.399 140.949 134.399 148.136C134.399 154.771 133.662 160.269 132.187 164.63C130.713 168.992 128.44 171.172 125.431 171.172C122.544 171.172 120.332 168.961 118.797 164.569ZM128.41 163.709C128.809 159.654 129.024 154.464 129.024 148.136C129.024 141.932 128.809 136.864 128.41 132.902C128.01 128.97 127.058 126.974 125.523 126.974C123.987 126.974 123.035 128.97 122.605 132.963C122.175 136.956 121.96 141.993 121.96 148.106C121.96 154.341 122.175 159.531 122.605 163.617C123.035 167.702 123.987 169.759 125.461 169.759C127.028 169.79 127.98 167.763 128.41 163.709Z" stroke="#1D1910" stroke-width="0.557957" stroke-miterlimit="10"/>
<path d="M147.298 144.666L150.4 145.157C151.567 148.351 152.55 152.129 153.348 156.429C154.116 160.729 154.915 166.074 155.713 172.432H154.761C153.256 166.596 151.567 161.344 149.724 156.614C147.881 151.884 145.547 147.215 142.66 142.577V166.166C142.66 168.347 143.213 169.821 144.319 170.527H136.333C137.439 169.821 137.992 168.347 137.992 166.166V130.598C137.992 128.418 137.439 126.943 136.333 126.237H144.442C146.346 126.237 148.189 126.575 150.001 127.281C151.813 127.988 153.318 129.063 154.515 130.537C155.713 132.011 156.327 133.823 156.327 135.973C156.327 137.54 155.897 138.953 155.038 140.181C154.178 141.441 153.041 142.393 151.659 143.099C150.277 143.806 148.803 144.113 147.298 144.082V144.666ZM149.386 130.445C148.219 128.909 145.977 128.141 142.691 128.141V140.98C143.674 141.963 144.841 142.423 146.223 142.423C147.574 142.423 148.741 141.901 149.694 140.888C150.676 139.843 151.137 138.338 151.137 136.311C151.137 133.946 150.553 131.981 149.386 130.445Z" stroke="#1D1910" stroke-width="0.557957" stroke-miterlimit="10"/>
<path d="M176.321 175.411C171.438 174.981 167.599 173.599 164.866 171.264C162.132 168.93 160.228 165.828 159.184 161.989C158.14 158.149 157.587 153.542 157.587 148.136C157.587 141.041 158.324 135.513 159.798 131.551C161.272 127.588 163.545 125.592 166.555 125.592C169.626 125.592 171.899 127.558 173.312 131.489C174.755 135.421 175.461 140.949 175.461 148.136C175.461 154.709 174.724 160.176 173.25 164.569C171.776 168.93 169.534 171.142 166.555 171.172C167.937 171.633 169.442 171.94 171.039 172.094C172.636 172.247 174.387 172.309 176.291 172.309V175.411H176.321ZM169.472 163.709C169.872 159.654 170.087 154.464 170.087 148.136C170.087 141.932 169.872 136.864 169.472 132.902C169.073 128.97 168.121 126.974 166.586 126.974C165.05 126.974 164.098 128.97 163.668 132.963C163.238 136.956 163.023 141.993 163.023 148.106C163.023 154.341 163.238 159.531 163.668 163.617C164.098 167.702 165.05 169.759 166.524 169.759C168.09 169.79 169.073 167.763 169.472 163.709Z" stroke="#1D1910" stroke-width="0.557957" stroke-miterlimit="10"/>
<path d="M181.205 168.715C179.884 167.057 179.239 164.63 179.239 161.436V130.598C179.239 128.418 178.686 126.943 177.581 126.237H185.566C184.46 126.943 183.907 128.418 183.907 130.598V160.146C183.907 163.524 184.153 165.889 184.675 167.241C185.167 168.592 186.149 169.268 187.593 169.268C188.944 169.268 189.927 168.562 190.541 167.118C191.156 165.674 191.463 163.371 191.463 160.146V130.598C191.463 128.418 190.91 126.943 189.804 126.237H195.24C194.135 126.943 193.582 128.418 193.582 130.598V160.146C193.582 163.985 193.06 166.78 191.985 168.531C190.941 170.282 189.221 171.172 186.856 171.172C184.399 171.172 182.525 170.343 181.205 168.715Z" stroke="#1D1910" stroke-width="0.557957" stroke-miterlimit="10"/>
<path d="M198.803 166.166V130.598C198.803 128.418 198.25 126.943 197.145 126.237H205.13C204.024 126.943 203.471 128.418 203.471 130.598V166.166C203.471 168.347 204.024 169.821 205.13 170.527H197.145C198.25 169.821 198.803 168.377 198.803 166.166Z" stroke="#1D1910" stroke-width="0.557957" stroke-miterlimit="10"/>
<path d="M225.37 130.598V170.527H221.96L211.457 132.564V166.166C211.457 168.347 212.01 169.821 213.115 170.527H207.679C208.785 169.821 209.338 168.347 209.338 166.166V130.598C209.338 128.418 208.785 126.943 207.679 126.237H214.651L223.25 157.105V130.598C223.25 128.418 222.698 126.943 221.592 126.237H227.028C225.922 126.943 225.37 128.418 225.37 130.598Z" stroke="#1D1910" stroke-width="0.557957" stroke-miterlimit="10"/>
<path d="M240.419 126.237L247.698 170.527H240.173C241.309 169.729 241.893 168.592 241.893 167.118C241.893 166.688 241.862 166.381 241.832 166.166L241.064 161.037H231.881L231.051 166.166C231.021 166.381 230.99 166.688 230.99 167.118C230.99 168.592 231.573 169.729 232.71 170.527H228.287L235.689 126.237H240.419ZM236.58 132.134L232.218 159.163H240.757L236.58 132.134Z" stroke="#1D1910" stroke-width="0.557957" stroke-miterlimit="10"/>
</g>
<defs>
<clipPath id="clip0_6_637">
<rect width="284" height="232.11" fill="white"/>
</clipPath>
</defs>
</svg>
