<svg xmlns="http://www.w3.org/2000/svg" viewBox="0 0 522.86 271.43"><defs><style>.cls-1{fill:#1e1706;}</style></defs><g id="Capa_1" data-name="Capa 1"><path class="cls-1" d="M152.5,210.37q0,13.83,6.9,18.34H125.93q6.9-4.53,6.9-18.34V69.56l-22.05,96.71v.26l-9,40.39-.27-.53v-.8L70.4,73.28V210.37q0,13.83,6.91,18.34H54.46q6.9-4.53,6.91-18.34V61.06q0-13.81-6.91-18.33H83.68l22.85,104.41L130.18,42.73H159.4q-6.9,4.52-6.9,18.33Z"/><path class="cls-1" d="M176.94,203.6q-9.56-27.76-9.56-68.95,0-44.64,9.3-69.61t28.43-25q19.38,0,28.42,24.71t9,69.87q0,41.72-9.3,69.21t-28.43,27.5Q186.51,231.36,176.94,203.6ZM217.19,200q2.52-25.5,2.53-65.36,0-39.06-2.53-63.89T205.11,45.91q-9.57,0-12.23,25.11t-2.65,63.63q0,39.33,2.65,65.1t12,25.77Q214.66,225.52,217.19,200Z"/><path class="cls-1" d="M257.44,210.37V61.06q0-13.81-6.9-18.33H284q-6.9,4.52-6.9,18.33V210.37q0,13.83,6.9,18.34H250.54Q257.44,224.18,257.44,210.37Z"/><path class="cls-1" d="M372,211.7q2.93,12,12.22,17H343.53a17.7,17.7,0,0,0,5.18-5.32,14.72,14.72,0,0,0,2.25-8.23,16.34,16.34,0,0,0-.53-4.79L331.3,126.42l-24.71,84a16.93,16.93,0,0,0-.79,4.79,14.2,14.2,0,0,0,2.26,8,19.32,19.32,0,0,0,5.44,5.58H286.67a11.73,11.73,0,0,0,6.11-5.72A81.85,81.85,0,0,0,297,210.37l29.49-99.1L293.31,42.73H322.8a8.57,8.57,0,0,0-3.45,7.17q0,4.79,3.18,11.16l15.15,31.08,22.05-38.25a7.42,7.42,0,0,0,1.06-3.72c0-2.3-1.24-4.7-3.72-7.18h19.67L344.86,99.05Z"/><path class="cls-1" d="M437.84,42.73l30.56,186H436.78q7.17-5.06,7.17-14.35a22.91,22.91,0,0,0-.26-4l-3.19-21.52H402l-3.45,21.52a21.76,21.76,0,0,0-.27,4q0,9.3,7.18,14.35h-18.6l31.09-186Zm-16.2,24.7L403.3,180.88h35.87Z"/></g></svg>